<?xml version="1.0" encoding="utf-8" ?><svg xmlns="http://www.w3.org/2000/svg" xmlns:xlink="http://www.w3.org/1999/xlink" width="512" height="512" viewBox="0 0 512 512"><defs><linearGradient id="gradient_0" gradientUnits="userSpaceOnUse" x1="325.05847" y1="331.98917" x2="192.61938" y2="175.36044"><stop offset="0" stop-color="#CDC9D7"/><stop offset="1" stop-color="#E4F3FE"/></linearGradient></defs><path fill="url(#gradient_0)" d="M191.679 174.752C194.809 174.749 196.793 174.544 200.084 174.752C200.119 176.912 200.092 179.101 200.084 181.263C202.457 181.128 204.049 181.156 206.43 181.263C206.34 179.137 206.404 176.889 206.43 174.752C209.78 174.635 212.341 174.539 215.676 174.752C215.713 176.905 215.682 179.107 215.676 181.263C218.198 180.87 219.181 180.792 221.729 181.263C221.579 173.08 222.868 174.255 230.51 174.752C230.568 176.854 230.516 179.146 230.51 181.263C233.542 180.851 234.196 180.839 237.214 181.263C236.932 178.901 237.065 177.123 237.214 174.752L245.989 174.752L245.989 181.263C248.148 181.132 249.379 181.143 251.545 181.263L251.545 174.752L260.866 174.752C260.986 177.133 260.956 178.872 260.866 181.263C263.18 180.974 264.371 180.82 266.737 181.263C266.664 178.958 266.657 177.056 266.737 174.752C269.063 174.706 273.44 174.501 275.499 174.752L275.499 180.752L281.511 180.752C281.316 172.561 283.745 174.178 290.536 174.752C290.53 176.92 290.512 179.097 290.536 181.263C293.037 180.927 294.642 180.722 297.159 180.752C297.077 178.574 297.001 176.913 297.159 174.752C300.846 174.452 302.692 174.413 306.354 174.752C306.33 176.945 306.318 179.07 306.354 181.263C308.923 181.109 310.455 181.031 313.013 181.263L313.013 174.752L321.743 174.752C321.782 176.857 321.877 179.18 321.743 181.263C327.132 181.232 332.481 180.195 336.147 184.829C335.83 188.009 335.06 196.138 336.147 198.767C336.398 215.529 336.717 233.75 336.147 250.491C334.669 250.442 331.122 250.369 330.219 249.226C328.717 249.036 328.355 249.068 326.839 249.226C326.954 252.846 326.838 256.494 326.839 260.119C330.12 260.245 332.86 260.211 336.147 260.119C335.855 263.657 336.091 266.706 336.125 270.249L336.126 282.539C336.226 296.407 336.323 310.915 336.147 324.765C331.833 325.562 331.237 325.403 326.839 324.765C326.525 330.23 327.624 334.075 320.158 334.567C315.319 334.887 310.404 334.693 305.55 334.679L276.177 334.662C271.376 334.653 265.461 334.329 260.866 334.666C259.224 334.836 253.122 334.892 251.545 334.666C250.831 334.496 244.576 334.643 243.305 334.647L215.599 334.68C210.777 334.683 201.294 335.952 197.545 332.675C195.971 330.719 193.748 328.145 191.679 326.822C191.269 326.125 190.816 325.445 190.376 324.765C188.17 324.175 185.382 321.752 183.686 320.329C182.218 320.292 180.642 320.324 179.164 320.329C179.255 317.7 179.136 314.416 179.164 311.692C181.43 311.597 183.222 311.617 185.494 311.692C185.303 308.769 185.314 307.091 185.494 304.156L179.164 304.156C179.12 301.014 179.13 297.951 179.164 294.808C181.599 294.647 183.041 294.684 185.494 294.808C185.27 291.854 185.31 289.994 185.494 287.042C183.129 286.844 181.514 286.933 179.164 287.042L179.164 277.185C181.167 277.05 183.465 277.148 185.494 277.185C185.609 274.559 185.643 272.927 185.494 270.286C182.866 269.868 181.743 269.951 179.164 270.286C179.253 266.538 179.487 263.892 179.164 260.119L179.164 259.667L182.329 259.667L182.329 250.491L179.164 250.491C177.492 245.225 182.024 246.367 185.494 246.648C186.086 243.081 185.996 242.493 185.494 238.835C183.291 238.788 180.958 238.831 178.744 238.835L178.744 230.246L185.494 230.246L185.494 223.519L179.164 223.519C179.046 220.071 179.019 217.717 179.164 214.297L185.494 214.297L185.494 207.808C183.207 207.735 181.027 207.772 178.744 207.808L178.744 197.96L185.494 197.96C185.375 195.438 185.427 193.304 185.494 190.792C174.403 190.654 176.784 187.567 185.494 187.707C185.632 185.239 185.629 183.732 185.494 181.263L191.679 181.263L191.679 174.752ZM327.727 261.813L327.727 261.813C326.08 263.223 326.833 278.032 326.833 280.803L326.835 307.974C326.835 311.918 327.033 319.147 326.654 322.788L326.839 321.909C328.014 321.039 328.853 320.826 330.219 320.329L330.213 276.979C330.23 271.406 330.031 265.662 330.219 260.119L326.839 260.119C327.021 261.12 327.016 261.064 327.727 261.813Z"/><path fill="#A9ACC3" d="M190.376 324.765C196.355 325.019 204.405 324.766 210.57 324.765L251.545 324.765L251.545 334.666C250.831 334.496 244.576 334.643 243.305 334.647L215.599 334.68C210.777 334.683 201.294 335.952 197.545 332.675C195.971 330.719 193.748 328.145 191.679 326.822C191.269 326.125 190.816 325.445 190.376 324.765Z"/><path fill="#A9ACC3" d="M326.839 190.792C330.346 193.346 333.38 196.892 336.147 198.767C336.398 215.529 336.717 233.75 336.147 250.491C334.669 250.442 331.122 250.369 330.219 249.226C330.56 247.959 330.265 242.548 330.219 240.766L326.839 240.766C327.142 237.526 327.181 236.429 326.839 233.165C327.924 233.11 329.122 233.153 330.219 233.165C330.353 230.262 330.232 226.488 330.219 223.519C329.205 223.603 327.88 223.539 326.839 223.519C327.324 219.84 327.245 219.15 326.839 215.365L330.219 215.365C330.314 212.69 330.227 209.457 330.219 206.745C329.017 206.661 328.035 206.708 326.839 206.745C326.819 202.339 327.407 194.414 326.839 190.792Z"/><path fill="#A9ACC3" d="M326.839 260.119C330.12 260.245 332.86 260.211 336.147 260.119C335.855 263.657 336.091 266.706 336.125 270.249L336.126 282.539C336.226 296.407 336.323 310.915 336.147 324.765C331.833 325.562 331.237 325.403 326.839 324.765C327.256 323.513 327.099 323.269 326.839 321.909C328.014 321.039 328.853 320.826 330.219 320.329L330.213 276.979C330.23 271.406 330.031 265.662 330.219 260.119L326.839 260.119L326.839 260.119Z"/><path fill="#215095" d="M251.545 324.765L260.866 324.765L260.866 334.666C259.224 334.836 253.122 334.892 251.545 334.666L251.545 324.765Z"/><path fill="#FDF9F9" d="M179.164 250.491C177.492 245.225 182.024 246.367 185.494 246.648C184.717 248.794 184.853 255.17 182.831 254.072C182.767 255.77 182.448 264.603 179.164 260.119L179.164 259.667L182.329 259.667L182.329 250.491L179.164 250.491Z"/><path fill="#FE9528" d="M198.281 300.939C198.74 268.044 197.934 234.955 198.273 202.044C198.399 189.809 208.18 192.608 216.9 192.618L282.477 192.65C288.584 192.654 295.136 192.451 301.196 192.631C314.924 193.658 311.246 208.602 311.244 218.66L311.252 289.277C311.273 296.691 314.104 310.007 303.527 310.274C296.61 310.448 289.627 310.364 282.676 310.356L219.973 310.353C210.739 310.4 199.47 312.985 198.281 300.939Z"/><path fill="#FC7315" d="M301.196 192.631C314.924 193.658 311.246 208.602 311.244 218.66L311.252 289.277C311.273 296.691 314.104 310.007 303.527 310.274C296.61 310.448 289.627 310.364 282.676 310.356L219.973 310.353C210.739 310.4 199.47 312.985 198.281 300.939C199.027 299.271 203.985 300.043 205.629 300.047L217.804 300.081C216.75 299.754 201.553 300.071 199.123 300.081C199.136 295.704 199.174 291.276 199.084 286.897C199.022 283.906 198.648 274.296 198.281 272.103C201.621 268.476 209.366 260.165 213.785 260.119C216.015 261.912 216.912 261.795 219.654 261.813C223.621 266.03 230.838 275.812 234.754 278.964C233.2 282.342 232.336 286.968 234.928 289.648C247.835 302.99 259.306 275.441 238.849 275.748C234.045 270.413 229.048 264.508 224.521 258.913C225.47 257.757 225.929 256.556 226.56 255.197C229.023 254.326 235.971 254.565 238.922 254.485L271.077 253.257C274.453 253.124 278.181 252.841 281.511 253.192C282.082 254.248 282.613 255.203 283.106 256.302C279.762 261.476 272.786 268.944 268.562 273.598C263.595 272.666 259.618 273.034 257.014 278.151C249.469 292.98 279.366 294.099 271.972 278.964C275.047 273.33 282.755 265.216 287.265 260.119C293.842 261.176 300.505 257.805 299.643 250.491L300.477 249.226C300.285 244.973 300.465 239.79 300.478 235.44L300.479 210.591C300.478 207.943 299.754 193.426 301.196 192.631Z"/><path fill="#EC5405" d="M301.196 192.631C314.924 193.658 311.246 208.602 311.244 218.66L311.252 289.277C311.273 296.691 314.104 310.007 303.527 310.274C296.61 310.448 289.627 310.364 282.676 310.356L219.973 310.353C210.739 310.4 199.47 312.985 198.281 300.939C199.027 299.271 203.985 300.043 205.629 300.047L217.804 300.081C218.805 300.238 224.334 300.117 225.645 300.111L278.938 300.09C296.929 300.098 300.552 304.227 300.486 284.88L300.477 266.197C300.479 263.855 300.745 250.512 300.477 249.226C300.285 244.973 300.465 239.79 300.478 235.44L300.479 210.591C300.478 207.943 299.754 193.426 301.196 192.631Z"/><path fill="#FDF9F9" d="M267.585 227.522C261.725 229.787 254.957 227.559 254.556 220.338C254.022 210.695 272.591 206.269 271.972 223.519C274.693 227.874 284.676 238.866 288.821 243.167C294.8 244.504 296.968 243.734 299.643 250.491C300.505 257.805 293.842 261.176 287.265 260.119C282.755 265.216 275.047 273.33 271.972 278.964C279.366 294.099 249.469 292.98 257.014 278.151C259.618 273.034 263.595 272.666 268.562 273.598C272.786 268.944 279.762 261.476 283.106 256.302C282.613 255.203 282.082 254.248 281.511 253.192C281.922 250.173 282.649 249.376 284.185 246.648C279.422 240.717 272.703 233.501 267.585 227.522Z"/><path fill="#FC7315" d="M262.63 217.289C264.178 216.871 265.772 217.784 266.194 219.332C266.616 220.879 265.705 222.476 264.159 222.901C262.608 223.327 261.006 222.413 260.583 220.861C260.16 219.309 261.077 217.709 262.63 217.289Z"/><path fill="#FC7315" d="M263.664 279.18C265.152 278.657 266.782 279.435 267.311 280.92C267.839 282.405 267.067 284.038 265.583 284.572C264.093 285.108 262.45 284.331 261.919 282.839C261.388 281.346 262.17 279.706 263.664 279.18Z"/><path fill="#FC7315" d="M289.738 249.416C290.683 249.066 291.743 249.253 292.512 249.904C293.281 250.556 293.64 251.571 293.451 252.561C293.261 253.551 292.553 254.362 291.598 254.683C290.151 255.17 288.582 254.406 288.073 252.966C287.565 251.527 288.306 249.946 289.738 249.416Z"/><path fill="#FDF9F9" d="M234.754 226.709C230.1 220.752 232.445 213.324 239.747 212.613C251.281 211.448 252.652 229.236 239.983 229.53C234.833 233.825 230.048 242.275 224.521 247.359C226.199 250.001 227.105 252.065 226.56 255.197C225.929 256.556 225.47 257.757 224.521 258.913C229.048 264.508 234.045 270.413 238.849 275.748C259.306 275.441 247.835 302.99 234.928 289.648C232.336 286.968 233.2 282.342 234.754 278.964C230.838 275.812 223.621 266.03 219.654 261.813C216.912 261.795 216.015 261.912 213.785 260.119C205.574 254.854 210.133 244.658 219.654 244.724C224.24 240.757 230.213 231.736 234.754 226.709Z"/><path fill="#FC7315" d="M241.21 281.444C244.517 281.835 246.347 284.95 242.76 287.042C239.054 288.336 237.592 283.72 241.21 281.444Z"/><path fill="#FC7315" d="M239.981 218.138C240.991 217.921 242.039 218.265 242.725 219.036C243.411 219.808 243.628 220.889 243.294 221.866C242.96 222.844 242.127 223.565 241.112 223.756C239.571 224.045 238.083 223.042 237.774 221.505C237.465 219.968 238.448 218.467 239.981 218.138Z"/><path fill="#FC7315" d="M216.932 250.491C220.799 250.599 221.882 253.255 219.654 256.302C215.252 256.701 214.001 253.361 216.932 250.491Z"/><path fill="#FDD4B0" d="M118.754 181.263C117.922 181.08 112.885 181.23 111.703 181.235L90.8274 181.273C68.6991 181.309 72.6295 178.866 72.6616 159.123L72.681 98.9093C72.6668 93.3658 70.1603 76.9384 78.926 77.3944C108.68 78.9423 143.147 78.3863 172.752 77.4352C184.323 77.0635 181.806 85.7901 181.802 94.7899L181.786 115.747L181.786 125.253L190.376 125.253C187.342 125.489 184.833 125.438 181.786 125.253L181.828 173.011C181.836 177.026 181.847 178.186 179.164 181.263C170.419 182.973 131.139 179.58 128.243 181.67L127.826 181.331C126.327 181.243 119.878 180.999 118.754 181.263Z"/><path fill="#FDF9F9" d="M102.474 87.0996L146.624 87.0989C155.214 87.0994 164.066 87.2328 172.627 87.0996L172.632 139.471C172.634 144.833 174.283 167.329 171.017 170.78C169.388 172.5 155.364 171.766 152.247 171.756L94.7238 171.765C81.4273 171.782 81.9338 172.947 81.9901 160.012L82.0158 87.6092C88.6721 86.783 95.7141 87.1862 102.474 87.0996Z"/><path fill="#376DA5" d="M139.794 100.251C139.624 88.0542 142.622 87.487 142.85 100.251L149.045 100.251C149.09 87.7409 152.103 87.7752 152.247 100.251C153.632 100.248 155.103 100.22 156.479 100.251L156.479 104.801C170.145 104.836 169.667 108.391 156.479 107.786C156.466 109.72 156.403 111.884 156.479 113.798C170.926 113.634 168.687 117.431 156.479 116.757L156.479 122.987C169.169 122.905 170.27 126.02 156.479 126.029L156.479 131.998C158.781 131.972 163.941 131.562 165.641 132.488C168.453 136.716 158.177 134.855 156.479 134.891C156.475 136.971 156.432 139.17 156.479 141.238C158.951 141.208 163.964 140.801 165.852 141.922C168.052 145.184 157.918 144.353 156.479 144.511L156.479 149.559C169.201 151.013 171.063 153.078 156.479 153.384L156.479 155.978L152.247 155.978C153.186 168.392 148.765 168.652 149.045 155.978C146.987 155.967 144.907 155.938 142.85 155.978C143.125 158.804 144.908 166.448 139.794 164.857C140.019 162.934 139.833 158.063 139.794 155.978C137.647 155.844 135.944 155.904 133.784 155.978C133.883 159.053 133.972 161.78 133.784 164.857C132.157 165.416 131.481 165.296 130.507 163.876C130.221 162.603 130.445 158.615 129.636 158.193C123.837 155.167 125.616 162.636 124.507 163.876C120.782 168.44 121.454 157.518 121.509 155.978C119.453 155.968 117.359 155.937 115.306 155.978C115.374 158.79 115.844 162.897 114.254 165.171L113.396 165.185C111.777 162.729 112.196 158.948 112.258 155.978C110.238 155.933 108.24 155.861 106.221 155.978C105.35 167.631 103.812 169.634 102.474 155.978C101.446 155.935 99.4568 155.979 98.6366 155.548L98.5079 153.654C96.9591 152.342 86.381 155.517 88.7137 150.886C90.4108 149.599 95.5817 149.937 98.4468 149.559L98.4468 144.511C96.4163 144.321 89.5938 144.407 88.6363 143.637C86.9561 139.728 96.6165 141.166 98.4468 141.238L98.4468 134.891C84.6824 134.923 83.9128 132.489 98.4468 131.998C98.4023 129.946 98.3597 128.078 98.4468 126.029C96.2363 125.913 90.3562 126.141 88.7886 125.542C86.2274 121.137 96.8021 122.788 98.4468 122.987L98.4468 116.757C96.1723 116.783 88.3272 117.798 88.2241 114.842C88.1403 112.441 96.8989 113.821 98.4468 113.798L98.4468 107.786C84.8009 107.79 84.4195 104.502 98.4468 104.801L98.4468 100.251C99.9961 100.267 101.673 100.318 103.207 100.251C103.34 88.1115 106.123 87.9631 106.221 100.251C108.216 100.275 110.27 100.328 112.258 100.251C112.28 98.1668 111.944 93.4998 112.895 91.8863C116.637 89.7995 115.263 98.6114 115.306 100.251L121.509 100.251C121.471 97.465 121.025 93.3449 122.715 91.1716L123.56 91.2831C125.158 93.8649 124.668 97.2586 124.507 100.251L130.507 100.251C130.481 89.3084 133.511 86.644 133.784 100.251L139.794 100.251Z"/><path fill="#F0E7E3" d="M124.507 155.978L130.507 155.978C130.478 158.404 130.782 161.599 130.507 163.876C130.221 162.603 130.445 158.615 129.636 158.193C123.837 155.167 125.616 162.636 124.507 163.876C124.321 162.109 124.481 157.908 124.507 155.978Z"/><path fill="#24A2E1" d="M131.341 103.902C137.614 103.72 144.707 103.901 151.063 103.902L151.063 149.559L122.415 149.559L102.474 149.559L102.474 103.902L131.341 103.902Z"/><path fill="#FDF9F9" d="M133.784 115.747C136.929 116.03 132.207 122.922 131.341 124.127L131.237 123.917C124.636 110.775 112.248 131.064 125.617 132.952C133.451 134.058 129.435 124.554 133.784 128.161C134.584 130.932 132.795 132.803 130.656 134.358C117.226 144.084 108.864 110.957 131.341 118.498C132.121 117.166 132.55 116.636 133.784 115.747Z"/><path fill="#B86E49" d="M329.242 115.747C329.515 105.097 328.927 94.2122 329.319 83.5481C329.631 75.044 344.846 77.7574 351.396 77.7572L415.965 77.7588C421.85 77.7516 427.925 77.6669 433.815 77.8423C442.098 78.0891 439.394 94.276 439.39 100.517L439.38 161.554C439.381 166.201 439.573 172.167 439.373 176.662C435.459 181.61 428.339 179.978 422.12 179.972L401.206 179.952C398.913 179.947 394.856 179.773 392.739 179.964L383.713 179.964C368.717 179.967 353.544 179.719 338.624 180.234C325.958 180.672 329.214 167.85 329.231 158.282L329.242 125.253C328.97 121.637 329.008 119.308 329.242 115.747Z"/><path fill="#F0E7E3" d="M357.965 87.6092L429.728 87.6092L429.755 163.55C429.731 166.942 430.079 167.865 427.783 170.118C425.889 170.333 423.007 170.17 421.028 170.15L410.125 170.118L338.541 170.118L338.541 87.6092L357.965 87.6092Z"/><path fill="#FE9528" d="M344.877 97.9638C348.923 97.9677 354.125 97.6802 357.965 97.9638C364.409 99.4466 361.713 108.555 361.717 115.243C356.185 115.259 350.387 115.358 344.877 115.243C344.209 111.247 344.874 102.39 344.877 97.9638Z"/><path fill="#EC5405" d="M357.965 97.9638C364.409 99.4466 361.713 108.555 361.717 115.243C356.185 115.259 350.387 115.358 344.877 115.243L344.877 111.504L357.965 111.504C357.865 110.083 357.726 98.622 357.965 97.9638Z"/><path fill="#FE9528" d="M406.096 97.9638L419.011 97.9638C420.788 98.1118 421.282 98.2204 422.995 98.694L422.995 115.243L406.096 115.243L406.096 111.504L406.096 97.9638Z"/><path fill="#EC5405" d="M419.011 97.9638C420.788 98.1118 421.282 98.2204 422.995 98.694L422.995 115.243L406.096 115.243L406.096 111.504C410.345 111.477 414.78 111.388 419.011 111.504L419.011 97.9638Z"/><path fill="#FE9528" d="M365.188 97.9638L378.983 97.9638C383.838 98.9689 381.96 110.977 381.983 115.243L365.188 115.243L365.188 111.994C365.036 107.728 365.195 102.297 365.188 97.9638Z"/><path fill="#EC5405" d="M378.983 97.9638C383.838 98.9689 381.96 110.977 381.983 115.243L365.188 115.243L365.188 111.994C366.005 111.131 376.409 111.495 378.287 111.504C378.44 108.911 377.837 99.3057 378.983 97.9638Z"/><path fill="#FE9528" d="M357.965 144.511C359.748 144.62 360.432 145.136 361.717 146.418L361.717 161.709C356.925 161.723 349.452 161.986 344.877 161.709C344.825 160.277 344.786 159.215 344.877 157.769L344.877 144.511C348.277 144.54 354.811 144.79 357.965 144.511Z"/><path fill="#EC5405" d="M357.965 144.511C359.748 144.62 360.432 145.136 361.717 146.418L361.717 161.709C356.925 161.723 349.452 161.986 344.877 161.709C344.825 160.277 344.786 159.215 344.877 157.769L357.965 157.769C358.179 153.782 357.996 148.584 357.965 144.511Z"/><path fill="#FE9528" d="M357.965 121.769C364.075 122.451 361.744 133.38 361.717 138.468C356.271 138.651 350.382 138.448 344.877 138.468C344.865 137.3 344.826 136.05 344.877 134.891C344.592 131.55 344.852 125.329 344.877 121.769L357.965 121.769Z"/><path fill="#EC5405" d="M357.965 121.769C364.075 122.451 361.744 133.38 361.717 138.468C356.271 138.651 350.382 138.448 344.877 138.468C344.865 137.3 344.826 136.05 344.877 134.891C348.138 134.661 354.466 134.884 357.965 134.891C357.95 130.524 357.911 126.134 357.965 121.769Z"/><path fill="#FE9528" d="M365.188 144.511L378.287 144.511C384.576 145.678 381.844 155.399 381.983 161.709C377.253 161.718 369.694 161.981 365.188 161.709L365.188 157.769L365.188 144.511Z"/><path fill="#EC5405" d="M378.287 144.511C384.576 145.678 381.844 155.399 381.983 161.709C377.253 161.718 369.694 161.981 365.188 161.709L365.188 157.769C369.388 157.645 374.052 157.756 378.287 157.769C378.37 153.348 378.408 148.931 378.287 144.511Z"/><path fill="#FE9528" d="M406.096 121.769L419.925 121.769L422.995 121.769L422.995 138.468C417.389 138.394 411.708 138.455 406.096 138.468L406.096 134.891L406.096 121.769Z"/><path fill="#EC5405" d="M419.925 121.769L422.995 121.769L422.995 138.468C417.389 138.394 411.708 138.455 406.096 138.468L406.096 134.891C407.376 134.664 417.557 134.784 419.011 134.891C418.992 132.592 418.786 123.653 419.221 122.11L419.925 121.769Z"/><path fill="#FE9528" d="M385.567 97.9638L399.509 97.9638C404.079 99.4604 401.888 110.271 401.902 115.243C398.693 115.129 385.84 116.642 385.567 113.798C385.406 108.898 385.563 102.94 385.567 97.9638Z"/><path fill="#EC5405" d="M399.509 97.9638C404.079 99.4604 401.888 110.271 401.902 115.243C398.693 115.129 385.84 116.642 385.567 113.798C386.017 110.229 394.884 111.977 398.763 111.994C398.715 109.566 397.811 99.1352 399.509 97.9638Z"/><path fill="#FE9528" d="M378.287 121.769C384.676 122.921 382.008 131.767 381.983 138.468L365.188 138.468L365.188 134.891L365.188 121.769C369.408 121.767 374.113 121.935 378.287 121.769Z"/><path fill="#EC5405" d="M378.287 121.769C384.676 122.921 382.008 131.767 381.983 138.468L365.188 138.468L365.188 134.891L378.287 134.891C378.306 130.521 378.344 126.138 378.287 121.769Z"/><path fill="#FE9528" d="M385.567 144.511C389.202 144.482 395.429 144.818 398.763 144.511C404.285 145 401.921 156.182 401.902 161.709L385.567 161.709L385.567 157.769L385.567 144.511Z"/><path fill="#EC5405" d="M398.763 144.511C404.285 145 401.921 156.182 401.902 161.709L385.567 161.709L385.567 157.769C389.289 157.963 394.891 157.772 398.763 157.769C398.528 155.731 398.751 147.076 398.763 144.511Z"/><path fill="#FE9528" d="M385.567 121.769L398.763 121.769C404.189 123.029 402.342 133.09 401.902 138.468L385.567 138.468L385.567 134.891L385.567 121.769Z"/><path fill="#EC5405" d="M398.763 121.769C404.189 123.029 402.342 133.09 401.902 138.468L385.567 138.468L385.567 134.891C388.216 134.642 395.746 134.882 398.763 134.891L398.763 121.769Z"/><path fill="#24A2E1" d="M406.096 145.558L419.011 145.558L422.995 145.558L422.995 161.709L406.096 161.709L406.096 157.769L406.096 145.558Z"/><path fill="#376DA5" d="M419.011 145.558L422.995 145.558L422.995 161.709L406.096 161.709L406.096 157.769C411.632 157.804 412.525 158.535 419.011 157.769L419.011 145.558Z"/><path fill="#FDD4B0" d="M118.754 329.19C121.697 328.85 125.317 328.539 128.243 329.19C142.38 328.849 156.576 329.195 170.725 329.17C177.101 329.159 183.281 328.005 183.109 336.723C183.037 340.378 182.352 379.978 182.992 381.979C183.453 385.259 183.426 387.375 182.992 390.709L183.001 415.504C183.04 422.08 185.037 425.795 179.164 430.158L178.956 430.174C175.087 430.44 168.183 430.152 164.033 430.151L97.3248 430.163C91.2971 430.169 85.2723 430.215 79.2463 430.118C69.4329 429.961 72.6655 408.186 72.6624 400.793L72.6646 345.642C72.6697 335.918 70.0169 329.041 81.9885 329.186C94.2269 329.334 106.529 328.97 118.754 329.19Z"/><path fill="#F0E7E3" d="M82.0158 338.988C85.4564 338.732 88.6824 338.96 92.1245 338.976L173.338 338.988L173.369 410.801C173.386 413.523 173.549 417.826 173.338 420.451L82.0158 420.451L82.028 349.324C82.0615 345.735 82.2858 342.578 82.0158 338.988Z"/><path fill="#FC7315" d="M167.819 354.194L167.935 353.928L168.354 354.586C174.89 354.048 168.445 364.885 167.819 358.633C167.779 359.567 167.996 360.014 167.209 360.598L167.111 360.823C166.184 363.332 165.645 361.922 163.249 361.941C163.898 361.778 165.308 361.546 165.672 361.156C165.368 361.05 150.161 361.287 148.796 361.393C152.406 361.837 151.449 362.4 148.157 363.513C142.624 365.383 141.555 371.032 138.693 375.518C137.322 377.666 140.747 380.411 137.247 380.754L167.819 380.754C167.836 382.37 168.274 385.44 167.257 386.59L165.984 386.622C166.252 387.918 165.265 388.306 164.15 388.365C158.714 386.096 141.369 386.479 134.581 386.857C133.137 386.938 129.819 388.799 129.675 387.414C129.1 387.773 123.211 395.963 122.389 397.08L122.566 397.39L122.979 397.361C126.02 392.8 122.134 402.211 118.915 404.114L118.193 404.153C117.737 403.503 118.146 403.819 118.059 403.063C115.807 405.359 111.873 404.295 108.378 404.289L90.2777 404.269L90.2777 398.001L113.448 398.001C116.905 393.29 122.327 386.034 124.507 380.754L101.575 380.745C98.3048 380.738 93.2807 380.452 90.2777 380.754L90.2777 374.205C102.329 373.996 115.031 374.204 127.136 374.205C132.113 368.557 136.466 360.228 141.113 354.194C149.492 353.924 159.29 354.226 167.819 354.194Z"/><path fill="#FDF9F9" d="M144.433 360.598C151.982 360.586 159.672 360.5 167.209 360.598L167.111 360.823C166.184 363.332 165.645 361.922 163.249 361.941C163.898 361.778 165.308 361.546 165.672 361.156C165.368 361.05 150.161 361.287 148.796 361.393C152.406 361.837 151.449 362.4 148.157 363.513C142.624 365.383 141.555 371.032 138.693 375.518C137.322 377.666 140.747 380.411 137.247 380.754L131.341 380.754C132.918 376.995 141.737 364.339 144.433 360.598Z"/><path fill="#FDF9F9" d="M128.243 386.622L165.984 386.622C166.252 387.918 165.265 388.306 164.15 388.365C158.714 386.096 141.369 386.479 134.581 386.857C133.137 386.938 129.819 388.799 129.675 387.414C129.1 387.773 123.211 395.963 122.389 397.08L122.566 397.39L122.979 397.361C126.02 392.8 122.134 402.211 118.915 404.114L118.193 404.153C117.737 403.503 118.146 403.819 118.059 403.063C119.68 398.851 126.029 392.295 128.243 386.622Z"/><path fill="#FDF9F9" d="M167.819 354.194L167.935 353.928L168.354 354.586C174.89 354.048 168.445 364.885 167.819 358.633C167.722 357.577 167.804 355.326 167.819 354.194Z"/><path fill="#FECD75" d="M153.746 391.875C155.107 392.55 164.468 402.592 165.984 404.269C161.814 407.82 157.707 411.251 153.746 415.098C152.887 414.694 143.184 404.463 141.934 403.063C146.626 399.034 149.389 396.068 153.746 391.875Z"/><path fill="#FECD75" d="M102.474 345.927C105.384 348.696 110.486 354.646 113.448 357.834C109.889 360.708 105.142 365.668 101.772 368.988C100.79 368.4 91.7208 359.256 90.2777 357.834C94.4337 353.943 98.443 349.943 102.474 345.927Z"/><path fill="#FDF9F9" d="M91.2969 380.754C93.0883 380.756 97.297 380.627 98.7508 381.17L98.8751 381.583L98.4468 381.979C96.7474 381.813 91.5985 382.778 91.2969 380.754Z"/><path fill="#B86E49" d="M383.713 329.19C386.978 329.03 390.034 329.299 392.739 329.19L419.863 329.178C442.333 329.165 439.397 329.358 439.385 351.474L439.382 404.826C439.383 432.059 442.73 430.167 418.154 430.165L352.421 430.165C346.371 430.173 340.304 430.233 334.259 430.16C327.223 430.076 329.219 418.542 329.221 413.459L329.242 390.709L329.242 381.979L329.254 339.15C329.372 325.325 337.494 329.176 349.899 329.185L383.713 329.19Z"/><path fill="#F0E7E3" d="M351.889 338.988L429.728 338.988L429.737 386.172C429.737 391.831 430.482 413.785 428.369 419.833C427.985 420.932 418.581 420.47 415.875 420.451L343.677 420.503C336.574 420.536 338.52 413.79 338.527 407.963L338.541 338.988C342.971 339.074 347.454 339.013 351.889 338.988Z"/><path fill="#215095" d="M354.553 347.753C356.373 347.672 359.111 347.319 360.614 348.18C362.291 350.836 361.908 361.344 360.513 364.24C360.129 365.036 353.041 364.776 351.889 364.765C344.921 364.895 344.756 365.463 344.863 357.82C345.022 346.502 342.965 347.616 354.553 347.753Z"/><path fill="#24A2E1" d="M347.923 350.857C351.144 350.815 354.295 350.823 357.516 350.857C357.487 354.425 357.743 357.011 357.831 360.448L357.516 360.598L347.923 360.598C347.889 359.298 347.499 351.48 347.923 350.857Z"/><path fill="#215095" d="M346.6 394.496C349.325 394.27 356.624 394.402 359.663 394.465C362.682 394.529 362.499 410.226 359.689 411.549C357.099 411.563 347.243 412.059 345.777 410.695C344.796 408.682 343.508 395.909 346.6 394.496Z"/><path fill="#24A2E1" d="M347.923 397.488L357.516 397.488L357.516 407.708C354.201 407.608 351.242 407.635 347.923 407.708L347.923 397.488Z"/><path fill="#215095" d="M346.6 371.233C351.566 371.215 356.775 371.094 361.717 371.233C361.38 374.596 362.843 386.439 360.446 388.156C358.278 388.261 347.013 388.479 345.819 387.711C344.46 385.369 343.872 373.168 346.6 371.233Z"/><path fill="#24A2E1" d="M347.923 374.205C350.683 374.349 354.664 374.214 357.516 374.205C357.483 375.412 357.632 383.928 357.516 384.269L347.923 384.269C347.925 382.67 347.3 374.952 347.923 374.205Z"/><path fill="#215095" d="M407.516 394.496C422.097 394.5 423.823 391.553 421.98 410.224C421.921 410.829 420.845 411.317 420.433 411.549C419.18 411.829 407.991 411.854 407.157 411.232C406.105 409.395 404.43 395.79 407.516 394.496Z"/><path fill="#24A2E1" d="M414.41 397.488C415.667 397.389 417.246 397.466 418.53 397.488L418.53 407.708C417.018 407.65 415.921 407.597 414.41 407.708C412.469 407.642 410.513 407.684 408.569 407.708C408.59 404.305 408.634 400.889 408.569 397.488C410.469 397.448 412.499 397.487 414.41 397.488Z"/><path fill="#215095" d="M387.26 347.753L394.689 347.706C396.523 347.698 400.222 347.392 401.434 348.594C402.083 350.825 403.163 363.535 400.297 364.765C381.114 365.902 387.062 365.169 385.837 350.812C385.722 349.454 386.008 348.379 387.26 347.753Z"/><path fill="#24A2E1" d="M387.883 350.857L398.763 350.857L398.763 360.598L387.883 360.598L387.883 350.857Z"/><defs><linearGradient id="gradient_1" gradientUnits="userSpaceOnUse" x1="389.84241" y1="411.95114" x2="397.45935" y2="393.92636"><stop offset="0" stop-color="#2A3E7E"/><stop offset="1" stop-color="#1059A4"/></linearGradient></defs><path fill="url(#gradient_1)" d="M387.883 394.496C390.345 394.485 400.031 393.984 401.397 395.474C402.208 397.615 403.098 409.696 400.297 411.549C397.716 411.56 388.048 412.091 386.453 410.929C385.778 409.246 384.053 395.5 387.883 394.496Z"/><path fill="#24A2E1" d="M387.883 397.488C391.512 397.469 395.133 397.441 398.763 397.488L398.763 407.708L387.883 407.708C387.721 404.771 387.868 400.523 387.883 397.488Z"/><path fill="#215095" d="M407.516 347.753C423.479 347.663 422.866 345.357 421.824 362.52C421.746 363.809 421.286 364.145 420.433 364.765C419.046 364.96 407.561 365.202 407.02 363.851C406.027 361.369 404.84 349.167 407.516 347.753Z"/><path fill="#24A2E1" d="M411.425 350.857C413.771 350.826 416.178 350.856 418.53 350.857C418.701 354.289 418.625 357.157 418.53 360.598L415.875 360.598C413.478 360.651 410.975 360.606 408.569 360.598L408.569 350.857L411.425 350.857Z"/><path fill="#215095" d="M387.26 371.233C389.756 371.182 400.078 370.648 401.385 372.229C402.347 374.718 403.114 386.406 400.297 388.156C398.284 388.164 387.674 388.577 386.828 387.333C385.308 385.098 384.651 373.106 387.26 371.233Z"/><path fill="#24A2E1" d="M387.883 374.205L398.763 374.205L398.763 384.269L387.883 384.269C388.659 380.31 388.503 378.161 387.883 374.205Z"/><path fill="#215095" d="M367.379 347.753C369.675 347.736 379.805 347.249 380.987 348.518C381.633 350.418 382.472 363.299 380.109 364.765C377.28 364.798 368.977 365.168 366.728 364.375C365.508 363.158 365.457 349.166 366.135 348.026L367.379 347.753Z"/><path fill="#24A2E1" d="M368.49 350.857C371.87 350.781 374.908 350.769 378.287 350.857L378.287 360.598L368.49 360.598C368.515 357.397 368.593 354.038 368.49 350.857Z"/><path fill="#215095" d="M367.379 371.233C384.568 371.088 380.733 369.026 381.43 384.392C381.503 386.016 381.276 387.058 380.109 388.156C377.819 388.175 367.863 388.442 366.362 387.655C365.656 385.355 364.284 372.376 367.379 371.233Z"/><path fill="#24A2E1" d="M370.496 374.205C373.801 374.521 374.929 374.505 378.287 374.205C378.296 377.393 379.576 384.154 376.303 384.269C373.737 384.324 371.064 384.277 368.49 384.269C368.534 380.082 366.709 374.866 370.496 374.205Z"/><defs><linearGradient id="gradient_2" gradientUnits="userSpaceOnUse" x1="380.87637" y1="409.59378" x2="365.85532" y2="395.67596"><stop offset="0" stop-color="#32487F"/><stop offset="1" stop-color="#1057A6"/></linearGradient></defs><path fill="url(#gradient_2)" d="M366.703 394.496C369.265 394.463 379.213 394.06 380.806 395.095C382.16 397.927 381.7 409.902 380.109 411.549C378.518 411.592 367.146 411.961 366.645 410.868C365.651 408.7 364.72 396.216 366.703 394.496Z"/><path fill="#24A2E1" d="M372.274 397.488C374.186 397.551 376.355 397.494 378.287 397.488L378.287 407.708L374.929 407.708L368.49 407.708L368.49 397.488L372.274 397.488Z"/><path fill="#215095" d="M407.516 371.233C410.006 371.219 419.12 370.817 420.912 371.784C422.418 373.756 423.041 386.032 420.433 388.156C419.089 388.295 407.82 388.533 407.24 387.616C405.823 385.378 404.906 373.109 407.516 371.233Z"/><path fill="#24A2E1" d="M408.569 374.205C412.231 374.467 414.889 374.366 418.53 374.205L418.53 384.269L408.569 384.269L408.569 374.205Z"/><path fill="#FE9528" d="M119.028 233.395C121.895 232.734 124.867 232.663 127.762 233.188C136.626 234.796 143.567 241.724 145.193 250.585C145.743 253.581 145.654 256.66 144.932 259.621C142.944 267.773 136.424 274.042 128.201 275.71C125.101 276.339 121.901 276.281 118.826 275.54C109.063 273.188 102.199 264.43 102.247 254.388C102.295 244.345 109.243 235.654 119.028 233.395Z"/><path fill="#FECD75" d="M121.801 242.394C128.309 241.366 134.419 245.806 135.45 252.313C136.482 258.821 132.045 264.933 125.538 265.968C119.027 267.004 112.909 262.563 111.876 256.051C110.844 249.538 115.288 243.423 121.801 242.394Z"/><path fill="#FE9528" d="M251.545 364.068C255.294 363.68 257.106 363.71 260.866 364.068L260.866 364.068C263.493 365.029 267.724 366.787 269.573 368.988C273.896 373.16 275.581 376.141 276.714 381.979C277.152 384.599 277.09 388.087 276.714 390.709C270.552 405.371 259.238 411.279 244.121 404.269C238.867 399.051 236.852 397.953 234.754 390.709C233.796 387.823 234.187 384.86 234.754 381.979C235.612 372.8 242.911 366.226 251.545 364.068Z"/><path fill="#FDAE3D" d="M251.545 364.068C255.294 363.68 257.106 363.71 260.866 364.068L260.866 364.068C260.791 365.43 260.967 373.843 260.866 374.205C259.186 373.852 253.296 373.862 251.545 374.205C243.388 381.099 241.767 385.205 247.507 394.496C246.364 397.234 245.821 402.433 244.121 404.269C238.867 399.051 236.852 397.953 234.754 390.709C233.796 387.823 234.187 384.86 234.754 381.979C235.612 372.8 242.911 366.226 251.545 364.068Z"/><path fill="#FE9528" d="M251.545 364.068C255.294 363.68 257.106 363.71 260.866 364.068L260.866 364.068C260.791 365.43 260.967 373.843 260.866 374.205C259.186 373.852 253.296 373.862 251.545 374.205C251.233 373.442 251.523 365.345 251.545 364.068Z"/><path fill="#FECD75" d="M251.545 374.205C253.296 373.862 259.186 373.852 260.866 374.205C261.793 375.477 264.316 377.919 265.612 378.791C270.676 394.059 256.793 401.554 247.507 394.496C241.767 385.205 243.388 381.099 251.545 374.205Z"/><path fill="#FDAE3D" d="M260.866 364.068C263.493 365.029 267.724 366.787 269.573 368.988C267.925 370.204 266.15 376.705 265.612 378.791C264.316 377.919 261.793 375.477 260.866 374.205C260.967 373.843 260.791 365.43 260.866 364.068Z"/><path fill="#FDAE3D" d="M383.713 234.135C387.078 233.443 389.305 233.322 392.739 234.135C399.5 235.602 403.803 240.105 407.516 245.575C412.264 260.234 407.325 270.449 392.739 275.748C389.045 276.412 387.379 276.352 383.713 275.748C379.203 274.403 375.437 272.69 372.274 269.18C369.467 266.209 368.377 263.541 367.379 259.667C366.542 256.896 366.521 253.268 367.379 250.491C368.997 241.786 375.17 235.925 383.713 234.135Z"/><path fill="#FE9528" d="M407.516 245.575C412.264 260.234 407.325 270.449 392.739 275.748C389.045 276.412 387.379 276.352 383.713 275.748C379.203 274.403 375.437 272.69 372.274 269.18C373.267 268.445 375.098 259.473 376.412 256.507C377.332 261.203 381.043 264.851 385.753 265.69C390.464 266.53 395.207 264.389 397.692 260.3C405.175 257.939 403.396 249.297 407.516 245.575Z"/><path fill="#FECD75" d="M376.412 256.507C375.416 251.423 377.914 246.295 382.532 243.946C387.15 241.598 392.766 242.599 396.288 246.398C399.81 250.198 400.383 255.873 397.692 260.3C395.207 264.389 390.464 266.53 385.753 265.69C381.043 264.851 377.332 261.203 376.412 256.507Z"/><path fill="#FE9528" d="M234.5 115.494C236.5 105.503 245.314 98.3396 255.503 98.4249C265.692 98.5102 274.385 105.82 276.218 115.843C276.788 118.965 276.652 122.175 275.819 125.237C273.821 132.583 268.044 138.298 260.677 140.216C257.864 140.949 254.931 141.096 252.059 140.649C243.679 139.345 236.878 133.18 234.76 124.968C233.96 121.87 233.872 118.631 234.5 115.494Z"/><path fill="#FECD75" d="M252.539 108.234C258.742 107.201 264.611 111.385 265.656 117.587C266.701 123.789 262.527 129.665 256.327 130.722C250.112 131.781 244.216 127.594 243.169 121.376C242.121 115.158 246.319 109.271 252.539 108.234Z"/><path fill="#637EA3" d="M181.786 115.747L234.5 115.494C233.872 118.631 233.96 121.87 234.76 124.968C232.365 125.356 223.669 125.173 220.754 125.179L190.376 125.253L181.786 125.253L181.786 115.747Z"/><path fill="#637EA3" d="M276.218 115.843C293.381 115.436 311.95 115.764 329.242 115.747C329.008 119.308 328.97 121.637 329.242 125.253C326.11 125.583 316.638 125.226 312.908 125.224L275.819 125.237C276.652 122.175 276.788 118.965 276.218 115.843Z"/><path fill="#637EA3" d="M118.826 275.54C121.901 276.281 125.101 276.339 128.201 275.71L128.243 329.19C125.317 328.539 121.697 328.85 118.754 329.19L118.826 275.54Z"/><path fill="#637EA3" d="M383.713 179.964L392.739 179.964L392.739 234.135C389.305 233.322 387.078 233.443 383.713 234.135C383.386 229.08 383.707 220.187 383.713 214.73L383.713 179.964Z"/><path fill="#637EA3" d="M118.754 181.263C119.878 180.999 126.327 181.243 127.826 181.331L128.243 181.67C128.081 187.824 128.417 231.401 127.762 233.188C124.867 232.663 121.895 232.734 119.028 233.395C118.772 232.225 118.853 220.528 118.849 218.555L118.754 181.263Z"/><path fill="#637EA3" d="M383.713 275.748C387.379 276.352 389.045 276.412 392.739 275.748L392.73 311.825C392.726 316.713 392.431 324.684 392.739 329.19C390.034 329.299 386.978 329.03 383.713 329.19L383.713 275.748Z"/><path fill="#637EA3" d="M276.714 381.979C279.256 381.718 283.608 381.947 286.374 381.965L321.141 381.954C323.074 381.946 327.538 381.769 329.242 381.979L329.242 390.709C323.774 390.508 317.242 390.699 311.668 390.702L276.714 390.709C277.09 388.087 277.152 384.599 276.714 381.979Z"/><path fill="#637EA3" d="M182.992 381.979L234.754 381.979C234.187 384.86 233.796 387.823 234.754 390.709C229.922 390.949 222.778 390.72 217.766 390.718L182.992 390.709C183.426 387.375 183.453 385.259 182.992 381.979Z"/><path fill="#637EA3" d="M326.839 249.226C328.355 249.068 328.717 249.036 330.219 249.226C331.122 250.369 334.669 250.442 336.147 250.491L367.379 250.491C366.521 253.268 366.542 256.896 367.379 259.667C363.664 260.279 358.15 260.132 354.255 260.13L336.147 260.119C332.86 260.211 330.12 260.245 326.839 260.119C326.838 256.494 326.954 252.846 326.839 249.226Z"/><path fill="#637EA3" d="M145.193 250.585C156.474 250.569 167.896 250.638 179.164 250.491L182.329 250.491L182.329 259.667L179.164 259.667L144.932 259.621C145.654 256.66 145.743 253.581 145.193 250.585Z"/><path fill="#637EA3" d="M252.059 140.649C254.931 141.096 257.864 140.949 260.677 140.216C260.921 144.187 260.801 148.937 260.809 152.976L260.866 174.752L251.545 174.752L251.691 154.065C251.726 149.753 251.625 144.903 252.059 140.649Z"/><path fill="#637EA3" d="M251.545 334.666C253.122 334.892 259.224 334.836 260.866 334.666C260.868 344.201 261.057 354.593 260.866 364.068C257.106 363.71 255.294 363.68 251.545 364.068L251.545 334.666Z"/></svg>