<?xml version="1.0" encoding="utf-8" ?><svg xmlns="http://www.w3.org/2000/svg" xmlns:xlink="http://www.w3.org/1999/xlink" width="512" height="512" viewBox="0 0 512 512"><path fill="#42485A" d="M208.477 52.5066L263.727 52.4855C269.064 52.4825 279.098 51.8837 279.149 59.7566C279.227 72.0321 279.546 84.4502 278.996 96.7036C277.627 104.708 267.412 102.05 261.837 102.642L261.495 102.68L261.495 121.029C284.082 123.225 324.025 138.073 341.657 154.005C344.152 151.917 350.119 145.489 352.741 142.837C349.273 139.344 345.269 135.762 341.657 132.349C344.429 129.315 347.061 126.223 350.177 123.517C356.53 130.334 362.65 136.031 369.359 142.468L387.636 160.335C390.365 163.035 398.492 170.73 400.373 173.283C397.793 175.763 394.447 178.857 391.685 181.079C388.659 178.084 385.721 174.968 382.379 172.349C379.793 176.242 375.484 180.281 372.118 183.648C451.439 281.757 395.612 427.315 273.754 451.824C228.25 462.266 175.515 449.247 138.597 421.369C61.6943 363.299 50.2132 259.216 108.211 183.648C104.188 179.885 100.887 175.939 96.6293 172.349C93.4059 174.87 90.6402 177.842 88.1542 181.079L87.2217 179.919C84.9414 177.075 82.197 175.088 80.0576 172.349C81.0236 171.028 83.477 168.836 84.752 167.584L116.003 136.966C119.608 133.414 124.111 128.687 127.842 125.405C129.819 126.797 134.663 131.6 136.253 133.465C133.271 137.082 130.239 138.228 127.842 142.837C129.313 144.825 136.348 152.264 138.274 154.005C141.633 151.967 145.519 148.765 149.06 146.529C164.673 136.667 199.108 120.945 218.532 121.029L218.532 102.68C205.481 102.538 200.74 104.699 200.735 89.9103L200.723 67.3841C200.659 60.5886 199.378 53.5646 208.477 52.5066Z"/><path fill="#FA8237" d="M133.847 402.853C71.5777 345.362 66.2186 248.812 121.743 184.784C177.267 120.755 273.603 112.393 339.329 165.896C383.704 202.019 404.896 259.435 394.629 315.726C384.362 372.017 344.266 418.255 289.996 436.386C235.725 454.518 175.888 441.667 133.847 402.853Z"/><path fill="#FEA860" d="M133.847 402.853C71.5777 345.362 66.2186 248.812 121.743 184.784C177.267 120.755 273.603 112.393 339.329 165.896C336.184 169.597 331.48 174.395 328.71 177.967C307.216 156.98 269.094 146.377 239.619 146.284C150.826 146.004 81.6404 230.607 101.423 317.625C106.779 341.183 125.334 377.282 145.632 391.469C141.466 395.185 137.755 398.865 133.847 402.853Z"/><path fill="#42485A" d="M154.079 382.915C109.079 342.173 98.7101 275.507 129.21 223.022C159.709 170.537 222.765 146.539 280.442 165.464C338.12 184.389 374.7 241.08 368.175 301.432C369.619 303.965 364.174 324.448 364.545 324.873C365.733 322.448 366.344 323.179 368.022 321.146C371.844 322.771 372.809 320.768 375.404 324.665C376.507 323.332 379.628 308.264 379.548 306.435L379.758 306.401C379.229 312.951 377.168 320.255 375.395 326.523C357.454 389.948 293.742 432 228.441 426.333C191.179 423.1 174.776 411.487 145.632 391.469C148.063 389.031 151.913 385.407 154.079 382.915Z"/><path fill="#EE4B0A" d="M368.175 301.432C369.619 303.965 364.174 324.448 364.545 324.873C365.733 322.448 366.344 323.179 368.022 321.146C371.844 322.771 372.809 320.768 375.404 324.665C376.507 323.332 379.628 308.264 379.548 306.435L379.758 306.401C379.229 312.951 377.168 320.255 375.395 326.523C357.454 389.948 293.742 432 228.441 426.333C191.179 423.1 174.776 411.487 145.632 391.469C148.063 389.031 151.913 385.407 154.079 382.915C189.912 415.357 240.914 424.958 286.09 407.764C331.266 390.57 362.98 349.489 368.175 301.432Z"/><path fill="#FAFAF9" d="M235.001 170.121C299.855 167.131 354.842 217.308 357.785 282.165C360.728 347.022 310.511 401.972 245.652 404.868C180.86 407.761 125.978 357.607 123.038 292.817C120.098 228.026 170.212 173.108 235.001 170.121Z"/><path fill="#FEC149" d="M203.768 233.494C208.927 232.883 230.344 233.041 235.606 233.494L237.593 233.494L265.258 233.483C268.626 233.48 275.286 233.246 278.362 233.494C279.918 234.777 281.414 236.527 282.645 238.126C277.726 240.164 262.698 253.451 257.444 257.77C250.487 263.915 249.444 264.834 244.712 272.93C238.081 270.663 233.53 271.157 227.802 275.25C224.05 279.041 222.316 281.397 221.287 286.71C221.121 289.941 221.28 290.616 222.16 293.759C219.079 298.181 216.417 302.267 213.613 306.872L204.126 324.065C202.218 327.491 200.061 331.046 198.323 334.521C189.192 325.207 178.021 316.272 169.294 306.872C175.308 301.057 181.588 292.622 186.797 286.02C181.138 279.712 174.605 273.895 169.294 267.335C172.727 261.957 200.064 235.411 203.768 233.494Z"/><path fill="#FEA860" d="M235.606 233.494L237.593 233.494L265.258 233.483C268.626 233.48 275.286 233.246 278.362 233.494C279.918 234.777 281.414 236.527 282.645 238.126C277.726 240.164 262.698 253.451 257.444 257.77C250.487 263.915 249.444 264.834 244.712 272.93C238.081 270.663 233.53 271.157 227.802 275.25C225.178 272.696 207.033 238.67 204.674 233.494L224.751 233.505C228.05 233.516 232.422 233.688 235.606 233.494Z"/><path fill="#FEC149" d="M237.593 233.494L265.258 233.483C268.626 233.48 275.286 233.246 278.362 233.494C279.918 234.777 281.414 236.527 282.645 238.126C277.726 240.164 262.698 253.451 257.444 257.77C253.638 254.186 239.28 237.843 237.593 233.494Z"/><path fill="#FA8237" d="M186.797 286.02C187.404 286.3 188.006 286.644 188.658 286.71C194.039 292.322 206.924 301.935 213.613 306.872L204.126 324.065C202.218 327.491 200.061 331.046 198.323 334.521C189.192 325.207 178.021 316.272 169.294 306.872C175.308 301.057 181.588 292.622 186.797 286.02Z"/><path fill="#FEA860" d="M188.658 286.71C194.652 286.413 215.545 285.92 221.287 286.71C221.121 289.941 221.28 290.616 222.16 293.759C219.079 298.181 216.417 302.267 213.613 306.872C206.924 301.935 194.039 292.322 188.658 286.71Z"/><path fill="#FEA860" d="M258.422 289.65L284.967 289.665C287.161 289.671 294.291 289.913 295.842 289.65C299.578 293.539 308.868 302.905 311.603 306.872C308.304 309.674 304.941 313.305 301.879 316.439L289.217 329.341C287.328 331.279 281.132 337.899 279.241 338.843L257.709 338.862C255.418 338.863 249.777 339.026 247.754 338.843C237.02 339.228 218.943 340.435 208.477 339.297L207.667 340.198C206.902 341.144 206.261 342.141 205.582 343.151C205.053 342.419 204.263 341.015 203.768 340.198C201.966 338.857 200.91 337.771 199.388 336.143C207.305 328.469 216.18 320.764 224.462 313.406C225.907 312.015 227.284 310.778 228.791 309.453C230.808 307.714 232.334 306.29 234.223 304.433C244.394 308.642 253.818 301.229 256.321 291.617L256.321 289.65C257.424 290.321 257.42 290.125 258.422 289.65Z"/><path fill="#FA8237" d="M258.422 289.65L284.967 289.665C287.161 289.671 294.291 289.913 295.842 289.65C299.578 293.539 308.868 302.905 311.603 306.872C308.304 309.674 304.941 313.305 301.879 316.439L289.217 329.341C287.328 331.279 281.132 337.899 279.241 338.843C276.59 330.793 262.671 312.249 257.444 304.433C257.522 302.777 259.987 290.937 256.946 290.798L256.321 291.617L256.321 289.65C257.424 290.321 257.42 290.125 258.422 289.65Z"/><path fill="#FA8237" d="M228.791 309.453C230.417 311.734 231.642 312.283 234.223 313.406C233.321 314.846 231.852 316.286 230.667 317.539C237.502 324.699 245.212 330.821 251.646 338.843C250.691 338.79 248.488 338.534 247.754 338.843C237.02 339.228 218.943 340.435 208.477 339.297L207.667 340.198C206.902 341.144 206.261 342.141 205.582 343.151C205.053 342.419 204.263 341.015 203.768 340.198C201.966 338.857 200.91 337.771 199.388 336.143C207.305 328.469 216.18 320.764 224.462 313.406C225.907 312.015 227.284 310.778 228.791 309.453Z"/><path fill="#EE4B0A" d="M228.791 309.453C230.417 311.734 231.642 312.283 234.223 313.406C233.321 314.846 231.852 316.286 230.667 317.539L230.667 317.539C223.889 325.346 215.084 331.934 208.477 339.297L207.667 340.198C206.902 341.144 206.261 342.141 205.582 343.151C205.053 342.419 204.263 341.015 203.768 340.198C201.966 338.857 200.91 337.771 199.388 336.143C207.305 328.469 216.18 320.764 224.462 313.406C225.907 312.015 227.284 310.778 228.791 309.453Z"/><path fill="#FA8237" d="M228.791 309.453C230.417 311.734 231.642 312.283 234.223 313.406C233.321 314.846 231.852 316.286 230.667 317.539L230.667 317.539C228.554 315.519 227.227 314.267 224.462 313.406C225.907 312.015 227.284 310.778 228.791 309.453Z"/><path fill="#DBB4A3" d="M203.768 340.198C205.062 340.21 206.375 340.239 207.667 340.198C206.902 341.144 206.261 342.141 205.582 343.151C205.053 342.419 204.263 341.015 203.768 340.198Z"/><path fill="#EE4B0A" d="M256.321 291.617L256.946 290.798C259.987 290.937 257.522 302.777 257.444 304.433C252.002 311.86 243.594 317.27 234.223 313.406C231.642 312.283 230.417 311.734 228.791 309.453C230.808 307.714 232.334 306.29 234.223 304.433C244.394 308.642 253.818 301.229 256.321 291.617Z"/><path fill="#FEC149" d="M282.645 238.126C291.797 246.745 301.952 258.061 310.726 267.335C305.666 273.829 298.16 280.073 292.304 286.02C293.577 287.466 294.432 288.336 295.842 289.65C294.291 289.913 287.161 289.671 284.967 289.665L258.422 289.65C257.42 290.125 257.424 290.321 256.321 289.65C256.339 286.498 255.936 285.192 255.088 282.098C259.604 276.526 263.314 270.512 267.257 264.513C270.138 260.245 275.779 248.414 278.362 245.936C279.683 243.197 281.557 240.493 282.645 238.126Z"/><path fill="#FEA860" d="M278.362 245.936C280.715 245.233 281.847 244.808 284.292 244.621C281.912 250.789 275.9 261.057 272.632 267.335C277.041 271.706 290.117 282.769 292.304 286.02C293.577 287.466 294.432 288.336 295.842 289.65C294.291 289.913 287.161 289.671 284.967 289.665L258.422 289.65C257.42 290.125 257.424 290.321 256.321 289.65C256.339 286.498 255.936 285.192 255.088 282.098C259.604 276.526 263.314 270.512 267.257 264.513C270.138 260.245 275.779 248.414 278.362 245.936Z"/><path fill="#FA8237" d="M267.257 264.513C269.596 264.474 270.571 265.971 272.632 267.335C268.2 273.901 262.382 282.828 258.422 289.65C257.42 290.125 257.424 290.321 256.321 289.65C256.339 286.498 255.936 285.192 255.088 282.098C259.604 276.526 263.314 270.512 267.257 264.513Z"/><path fill="#42485A" d="M304.577 206.167C306.045 206.457 312.449 213.425 313.82 214.927C310.206 217.392 307.474 220.324 304.577 223.563C302.178 222.35 297.411 217.221 295.842 214.927C297.55 212.721 302.359 208.24 304.577 206.167Z"/><path fill="#42485A" d="M234.223 185.774L247.754 185.774L247.754 197.51L234.223 197.51C234.048 195.602 234.057 187.516 234.223 185.774Z"/><path fill="#42485A" d="M174.714 206.167C177.471 207.397 181.811 212.485 183.885 214.927C181.172 216.798 177.191 221.071 174.714 223.563C173.848 223.077 167.302 216.047 166.387 214.927C169.067 211.903 171.996 209.365 174.714 206.167Z"/><path fill="#42485A" d="M234.223 375.085L246.502 375.085C246.517 379.195 246.548 383.314 246.502 387.423L234.223 387.423L234.223 375.085Z"/><path fill="#42485A" d="M305.659 350.435C306.999 351.355 312.431 357.481 313.82 358.985C311.147 361.765 308.394 364.48 305.659 367.201C302.968 364.977 299.71 361.526 297.208 358.985C299.743 356.125 302.903 353.075 305.659 350.435Z"/><path fill="#42485A" d="M328.71 280.553L340.483 280.553C340.472 284.418 340.649 288.739 340.483 292.559L328.71 292.559L328.71 280.553Z"/><path fill="#42485A" d="M174.714 350.435C176.856 352.338 180.736 356.686 183.007 358.985C179.386 361.895 177.552 363.539 174.714 367.201C173.886 367.14 167.736 360.273 166.387 358.985C169.387 355.516 171.162 353.47 174.714 350.435Z"/><path fill="#42485A" d="M139.975 281.309L151.738 281.309L151.738 292.559L139.975 292.559L139.975 281.309Z"/><path fill="#90C5E3" d="M212.272 63.7623C227.857 63.932 243.75 63.7587 259.369 63.7623C262.266 63.7934 265.125 63.7836 268.021 63.7623L268.021 91.0208L212.272 91.0208C212.266 86.6359 212.098 81.1654 212.272 76.8736L212.272 63.7623Z"/><path fill="#61B2DE" d="M259.369 63.7623C262.266 63.7934 265.125 63.7836 268.021 63.7623L268.021 91.0208L212.272 91.0208C212.266 86.6359 212.098 81.1654 212.272 76.8736C212.511 79.3976 212.248 83.7354 212.705 85.9774L212.959 86.0275L213.38 84.818C216.555 81.6212 246.319 84.8969 252.485 82.7384C257.288 81.0567 267.388 64.4836 259.369 63.7623Z"/><path fill="#61B2DE" d="M230.667 102.68L249.651 102.68L249.651 119.742L230.667 119.742L230.667 102.68Z"/><path fill="#61B2DE" d="M118.44 151.142C121.311 153.587 126.269 158.766 129.246 161.643C125.332 165.693 120.092 170.47 115.927 174.628C112.628 172.339 108.52 166.93 105.104 164.014C107.532 161.086 115.387 153.285 118.44 151.142Z"/><path fill="#90C5E3" d="M361.288 151.142C363.866 153.869 366.833 156.697 369.52 159.351C371.037 160.881 372.64 162.45 374.112 164.014C370.913 167.678 367.66 170.827 364.439 174.628C362.544 172.349 360.473 170.287 358.715 168.177C356.207 165.99 354.158 163.832 351.48 161.643C353.315 159.091 358.938 153.278 361.288 151.142Z"/><path fill="#61B2DE" d="M369.52 159.351C371.037 160.881 372.64 162.45 374.112 164.014C370.913 167.678 367.66 170.827 364.439 174.628C362.544 172.349 360.473 170.287 358.715 168.177C361.532 166.942 367.179 161.682 369.52 159.351Z"/><path fill="#42485A" d="M410.716 186.673C410.886 186.747 411.147 186.84 411.247 187.003C429.415 216.653 440.857 253.982 439.802 288.722C437.242 288.778 434.452 288.726 431.875 288.722L428.219 288.722C428.796 255.668 418.495 222.446 402.006 194.022C404.313 191.887 408.221 188.46 410.716 186.673Z"/><path fill="#FA8237" d="M343.722 80.1745C344.454 80.3395 360.579 96.4636 362.662 98.5203C359.765 101.354 357.231 103.844 354.495 106.839C347.998 100.914 342.452 94.6483 335.421 88.4287C336.929 86.5026 341.798 81.8247 343.722 80.1745Z"/><path fill="#FA8237" d="M420.28 135.442L446.654 135.442C446.607 139.039 446.788 142.832 446.654 146.369L420.28 146.369C420.263 142.724 420.239 139.087 420.28 135.442Z"/><path fill="#FA8237" d="M433.941 84.1608C434.744 84.3868 439.477 89.5459 441.668 91.0208C439.439 94.189 436.538 96.8231 433.787 99.5646L423.475 109.835C422.61 109.331 417.936 104.277 415.855 102.68L415.967 102.523C419.428 97.8301 428.942 88.5129 433.941 84.1608Z"/><path fill="#FA8237" d="M382.379 64.8476C385.714 65.0034 390.109 64.8596 393.523 64.8476C393.576 67.5107 393.982 88.6245 393.523 89.329C390.011 89.2173 385.936 89.3239 382.379 89.329C382.132 81.681 382.37 72.6069 382.379 64.8476Z"/></svg>